<svg xmlns="http://www.w3.org/2000/svg" viewBox="0 0 272.77 239.68"><title>favicon_1</title><g id="Layer_2" data-name="Layer 2"><g id="Layer_1-2" data-name="Layer 1"><path d="M193.21,0a81.07,81.07,0,0,0-56.83,22.87C105.63-7.19,55.26-7.69,23.88,21.78A74.72,74.72,0,0,0,0,76.25c0,45.31,22.73,110.22,131.3,162.28a11.75,11.75,0,0,0,10.16,0C250,186.47,272.77,121.56,272.77,76.25,272.72,34.16,237.13.06,193.21,0Zm-56.83,216.5C61,179.14,22.73,132,22.73,76.25c0-30.07,25.47-54.44,56.85-54.43a57.53,57.53,0,0,1,47.34,24.36,12.13,12.13,0,0,0,16.5,2.33,11.44,11.44,0,0,0,2.43-2.33c17.35-25.07,52.61-31.91,78.77-15.29A53.94,53.94,0,0,1,250,76.25C250,132,211.81,179.14,136.38,216.51Z"/></g></g></svg>