<svg xmlns="http://www.w3.org/2000/svg" viewBox="0 0 657.78 86.09"><defs><style>.cls-1{fill-rule:evenodd;}</style></defs><g id="Layer_2" data-name="Layer 2"><g id="Layer_1-2" data-name="Layer 1"><path class="cls-1" d="M0,86.09C10,81.64,28.59,71.89,49.05,63A557.76,557.76,0,0,1,116.56,38.8,648.87,648.87,0,0,1,191,21.93c22.62-3.61,37.78-4.69,50.3-4.66s22.32,1.13,29.37,3.12,11.64,4.79,14,7.61,3.16,5,3.25,7.26a13.34,13.34,0,0,1-2.09,7.27A33.94,33.94,0,0,1,278.2,51,96.14,96.14,0,0,1,265,60.3,87,87,0,0,1,250.71,67c-4.77,1.72-9.52,2.93-12.35,3s-4.65-.58-5.23-1.28-.49-2.22,1.14-4.75,5-5.85,9.14-8.87a62.18,62.18,0,0,1,14.27-7.6A178.73,178.73,0,0,1,278.22,41c8-2.09,17.22-4.09,25.08-5.55s14.14-2.46,21.14-3.43,14.74-1.92,23.2-2.85,17.66-1.84,37.67-3.44,50.48-3.94,80.91-6.36,60.85-4.91,91.09-7.81S617.57,5.25,640,2.39,662.34-.47,647.17.87c0,0-31.06,1-61.69,2.93S524.41,8.11,494,10.58s-60.81,4.86-91.27,7.18S362.42,21,353.37,21.92s-17.43,1.88-25.07,2.86-14.6,2-20.86,3-16.5,3-25.66,5.13a246.18,246.18,0,0,0-24.19,6.75A103,103,0,0,0,240,47.33a57.16,57.16,0,0,0-13.12,10.51c-3.3,3.64-4.85,7-4.11,10.26s4.37,6,10.3,7.55,12.84.39,18.4-1.22A93.37,93.37,0,0,0,267.68,68a107.68,107.68,0,0,0,15.4-9.56,54.06,54.06,0,0,0,10.84-10.09,21.69,21.69,0,0,0,4.5-9.43,14.66,14.66,0,0,0-1.49-9.32C295.35,26.5,290.67,21.68,283,18s-17.68-5.83-29.81-6.69-26.45-.51-43.21,1S163.89,19.42,137,26,85.74,40.26,63.87,49.15,23,68.24,15.39,74.31C-.3,85.93,8.11,80.54,0,86.09"/><polygon class="cls-1" points="285.94 30.39 286.66 38.53 306.78 37.21 294.91 28.4 285.94 30.39"/></g></g></svg>